# xmcd
#
# Track frame offsets:
#	150
#	14450
#	36800
#	47902
#	77152
#	90940
#	108850
#	119497
#	140837
#	155360
#	180312
#	202797
#	218390
#	231550
#	265750
#	293200
#	308850
#	319840
#
# Disc length: 4395
#
# Revision: 3
# Processed by: cddbd v1.5.1PL0 Copyright (c) Steve Scherf et al.
# Submitted via: EasyCDDAExtractor 7.0.5.4
# Normalized: r2:DSETVAR1
#
DISCID=f2112912
DTITLE=Various Artist - Blues On The Road
DYEAR=1900
DGENRE=Blues
TTITLE0=Sonny Terry and Brownie McGee - Walk On
TTITLE1=Eric Clapton - The First Time I Met The Blues
TTITLE2=Eric Clapton - Snake Drive
TTITLE3=Albert Lee and Jimmy Page - One Long Kiss
TTITLE4=Sam "Lightnig" Hopkins - Big Black Cadillac
TTITLE5=John Lee Hooker - Wednesday Evening Blues
TTITLE6=John Lee Hooker - Maudie
TTITLE7=Sonny Terry and Brownie McGee - Blues For The Lowlands
TTITLE8=Sonny Terry and Brownie McGee - Trouble In Mind
TTITLE9=Canned Heat - Dust My Broom
TTITLE10=Canned Heat - I'd Rather be The Devil
TTITLE11=Tony Joe White - Baby Please Don't Go
TTITLE12=Tony Joe White - You Got Me Runnin'/Let It Roll
TTITLE13=Jimi Hendrix - Peoples People
TTITLE14=Sonny Terry and Brownie McGee - Blwin' The Fused
TTITLE15=Memphis Slim - Three Woman Blues
TTITLE16=Leadbelly and Josh White - I've Got A Pretty Flower
TTITLE17=Leadbelly and Sonny Terry - How Long
EXTD=
EXTT0=
EXTT1=
EXTT2=
EXTT3=
EXTT4=
EXTT5=
EXTT6=
EXTT7=
EXTT8=
EXTT9=
EXTT10=
EXTT11=
EXTT12=
EXTT13=
EXTT14=
EXTT15=
EXTT16=
EXTT17=
PLAYORDER=
